<svg width="78" height="42" viewBox="0 0 78 42" fill="none" xmlns="http://www.w3.org/2000/svg">
<path d="M6.588 38C6.452 37.64 6.324 37.288 6.204 36.944C6.084 36.592 5.96 36.236 5.832 35.876H2.064L1.308 38H0.096C0.416 37.12 0.716 36.308 0.996 35.564C1.276 34.812 1.548 34.1 1.812 33.428C2.084 32.756 2.352 32.116 2.616 31.508C2.88 30.892 3.156 30.284 3.444 29.684H4.512C4.8 30.284 5.076 30.892 5.34 31.508C5.604 32.116 5.868 32.756 6.132 33.428C6.404 34.1 6.68 34.812 6.96 35.564C7.24 36.308 7.54 37.12 7.86 38H6.588ZM5.496 34.916C5.24 34.22 4.984 33.548 4.728 32.9C4.48 32.244 4.22 31.616 3.948 31.016C3.668 31.616 3.4 32.244 3.144 32.9C2.896 33.548 2.648 34.22 2.4 34.916H5.496ZM26.797 34.52C26.925 34.68 27.085 34.892 27.277 35.156C27.477 35.412 27.681 35.7 27.889 36.02C28.097 36.332 28.301 36.66 28.501 37.004C28.709 37.348 28.885 37.68 29.029 38H27.757C27.597 37.696 27.421 37.388 27.229 37.076C27.045 36.764 26.857 36.468 26.665 36.188C26.473 35.9 26.281 35.632 26.089 35.384C25.905 35.136 25.737 34.92 25.585 34.736C25.481 34.744 25.373 34.748 25.261 34.748C25.157 34.748 25.049 34.748 24.937 34.748H23.893V38H22.729V29.804C23.057 29.724 23.421 29.672 23.821 29.648C24.229 29.616 24.601 29.6 24.937 29.6C26.105 29.6 26.993 29.82 27.601 30.26C28.217 30.7 28.525 31.356 28.525 32.228C28.525 32.78 28.377 33.252 28.081 33.644C27.793 34.036 27.365 34.328 26.797 34.52ZM25.033 30.62C24.537 30.62 24.157 30.632 23.893 30.656V33.788H24.721C25.121 33.788 25.481 33.768 25.801 33.728C26.121 33.688 26.389 33.612 26.605 33.5C26.829 33.388 27.001 33.232 27.121 33.032C27.241 32.824 27.301 32.552 27.301 32.216C27.301 31.904 27.241 31.644 27.121 31.436C27.001 31.228 26.837 31.064 26.629 30.944C26.429 30.824 26.189 30.74 25.909 30.692C25.637 30.644 25.345 30.62 25.033 30.62ZM47.463 38.18C46.879 38.18 46.347 38.084 45.867 37.892C45.387 37.7 44.975 37.42 44.631 37.052C44.287 36.684 44.019 36.232 43.827 35.696C43.643 35.152 43.551 34.532 43.551 33.836C43.551 33.14 43.655 32.524 43.863 31.988C44.079 31.444 44.367 30.988 44.727 30.62C45.087 30.252 45.507 29.972 45.987 29.78C46.467 29.588 46.979 29.492 47.523 29.492C47.867 29.492 48.175 29.516 48.447 29.564C48.727 29.612 48.967 29.668 49.167 29.732C49.375 29.796 49.543 29.86 49.671 29.924C49.799 29.988 49.887 30.036 49.935 30.068L49.599 31.028C49.527 30.98 49.423 30.928 49.287 30.872C49.151 30.816 48.995 30.76 48.819 30.704C48.651 30.648 48.463 30.604 48.255 30.572C48.055 30.532 47.851 30.512 47.643 30.512C47.203 30.512 46.807 30.588 46.455 30.74C46.103 30.892 45.803 31.112 45.555 31.4C45.307 31.688 45.115 32.04 44.979 32.456C44.851 32.864 44.787 33.324 44.787 33.836C44.787 34.332 44.843 34.784 44.955 35.192C45.075 35.6 45.251 35.952 45.483 36.248C45.715 36.536 46.003 36.76 46.347 36.92C46.699 37.08 47.107 37.16 47.571 37.16C48.107 37.16 48.551 37.104 48.903 36.992C49.255 36.88 49.519 36.78 49.695 36.692L49.995 37.652C49.939 37.692 49.839 37.744 49.695 37.808C49.551 37.864 49.371 37.92 49.155 37.976C48.939 38.032 48.687 38.08 48.399 38.12C48.111 38.16 47.799 38.18 47.463 38.18ZM70.8939 38C70.7579 37.64 70.6299 37.288 70.5099 36.944C70.3899 36.592 70.2659 36.236 70.1379 35.876H66.3699L65.6139 38H64.4019C64.7219 37.12 65.0219 36.308 65.3019 35.564C65.5819 34.812 65.8539 34.1 66.1179 33.428C66.3899 32.756 66.6579 32.116 66.9219 31.508C67.1859 30.892 67.4619 30.284 67.7499 29.684H68.8179C69.1059 30.284 69.3819 30.892 69.6459 31.508C69.9099 32.116 70.1739 32.756 70.4379 33.428C70.7099 34.1 70.9859 34.812 71.2659 35.564C71.5459 36.308 71.8459 37.12 72.1659 38H70.8939ZM69.8019 34.916C69.5459 34.22 69.2899 33.548 69.0339 32.9C68.7859 32.244 68.5259 31.616 68.2539 31.016C67.9739 31.616 67.7059 32.244 67.4499 32.9C67.2019 33.548 66.9539 34.22 66.7059 34.916H69.8019Z" fill="white"/>
<path d="M11.88 7.14V9.8H7.7V21H4.58V9.8H0.4V7.14H11.88ZM17.9452 6.98C20.0252 6.98 21.6185 7.35333 22.7252 8.1C23.8318 8.83333 24.3852 9.98 24.3852 11.54C24.3852 12.5133 24.1585 13.3067 23.7052 13.92C23.2652 14.52 22.6252 14.9933 21.7852 15.34C22.0652 15.6867 22.3585 16.0867 22.6652 16.54C22.9718 16.98 23.2718 17.4467 23.5652 17.94C23.8718 18.42 24.1652 18.9267 24.4452 19.46C24.7252 19.98 24.9852 20.4933 25.2252 21H21.7252C21.4718 20.5467 21.2118 20.0867 20.9452 19.62C20.6918 19.1533 20.4252 18.7 20.1452 18.26C19.8785 17.82 19.6118 17.4067 19.3452 17.02C19.0785 16.62 18.8118 16.26 18.5452 15.94H17.0052V21H13.8852V7.34C14.5652 7.20667 15.2652 7.11333 15.9852 7.06C16.7185 7.00667 17.3718 6.98 17.9452 6.98ZM18.1252 9.64C17.8985 9.64 17.6918 9.64667 17.5052 9.66C17.3318 9.67333 17.1652 9.68667 17.0052 9.7V13.46H17.8852C19.0585 13.46 19.8985 13.3133 20.4052 13.02C20.9118 12.7267 21.1652 12.2267 21.1652 11.52C21.1652 10.84 20.9052 10.36 20.3852 10.08C19.8785 9.78667 19.1252 9.64 18.1252 9.64ZM37.13 21C36.9833 20.52 36.8167 20.0267 36.63 19.52C36.4567 19.0133 36.2833 18.5067 36.11 18H30.71C30.5367 18.5067 30.3567 19.0133 30.17 19.52C29.9967 20.0267 29.8367 20.52 29.69 21H26.45C26.97 19.5067 27.4633 18.1267 27.93 16.86C28.3967 15.5933 28.85 14.4 29.29 13.28C29.7433 12.16 30.1833 11.1 30.61 10.1C31.05 9.08667 31.5033 8.1 31.97 7.14H34.95C35.4033 8.1 35.85 9.08667 36.29 10.1C36.73 11.1 37.17 12.16 37.61 13.28C38.0633 14.4 38.5233 15.5933 38.99 16.86C39.4567 18.1267 39.95 19.5067 40.47 21H37.13ZM33.39 10.28C33.3233 10.48 33.2233 10.7533 33.09 11.1C32.9567 11.4467 32.8033 11.8467 32.63 12.3C32.4567 12.7533 32.2633 13.2533 32.05 13.8C31.85 14.3467 31.6433 14.92 31.43 15.52H35.37C35.1567 14.92 34.95 14.3467 34.75 13.8C34.55 13.2533 34.3567 12.7533 34.17 12.3C33.9967 11.8467 33.8433 11.4467 33.71 11.1C33.5767 10.7533 33.47 10.48 33.39 10.28ZM45.0755 21C44.5288 19.84 43.9888 18.6333 43.4555 17.38C42.9221 16.1267 42.4155 14.8867 41.9355 13.66C41.4555 12.4333 41.0088 11.26 40.5955 10.14C40.1955 9.02 39.8488 8.02 39.5555 7.14H42.9955C43.2621 7.94 43.5488 8.80667 43.8555 9.74C44.1755 10.66 44.4955 11.58 44.8155 12.5C45.1488 13.42 45.4688 14.3 45.7755 15.14C46.0821 15.98 46.3688 16.7067 46.6355 17.32C46.8888 16.7067 47.1688 15.98 47.4755 15.14C47.7955 14.3 48.1155 13.42 48.4355 12.5C48.7688 11.58 49.0888 10.66 49.3955 9.74C49.7155 8.80667 50.0088 7.94 50.2755 7.14H53.5955C53.2888 8.02 52.9355 9.02 52.5355 10.14C52.1355 11.26 51.6955 12.4333 51.2155 13.66C50.7355 14.8867 50.2288 16.1267 49.6955 17.38C49.1621 18.6333 48.6221 19.84 48.0755 21H45.0755ZM55.3891 21V7.14H64.7491V9.76H58.5091V12.48H64.0491V15.04H58.5091V18.38H65.2091V21H55.3891ZM76.778 18.32V21H67.518V7.14H70.638V18.32H76.778Z" fill="white"/>
</svg>
